<svg width="64" height="64" viewBox="0 0 64 64" fill="none" xmlns="http://www.w3.org/2000/svg">
<path d="M59.5337 32.0001C59.5337 32.0001 64.5821 27.8491 62.8201 22.3368C61.0581 16.8244 54.2736 16.381 54.2736 16.381C54.2736 16.381 55.9082 10.0714 51.0346 6.70733C46.1611 3.34329 40.4929 6.7219 40.4929 6.7219C40.4929 6.7219 38.1522 0.739075 31.9723 0.739075C25.7923 0.739075 23.4517 6.7219 23.4517 6.7219C23.4517 6.7219 17.9649 3.3308 12.9099 6.70733C7.85498 10.0839 9.67096 16.381 9.67096 16.381C9.67096 16.381 2.76118 16.712 1.12442 22.3368C-0.512334 27.9616 4.41089 32.0001 4.41089 32.0001C4.41089 32.0001 -0.590069 35.87 1.12442 41.6613C2.83891 47.4526 9.67096 47.617 9.67096 47.617C9.67096 47.617 7.94351 54.087 12.9099 57.2907C17.8763 60.4945 23.4517 57.2782 23.4517 57.2782C23.4517 57.2782 25.991 63.2611 31.9723 63.2611C37.9536 63.2611 40.4929 57.2782 40.4929 57.2782C40.4929 57.2782 46.6167 60.4965 51.0346 57.2907C55.8758 53.7789 54.2736 47.617 54.2736 47.617C54.2736 47.617 60.9329 47.4484 62.8201 41.6613C64.7074 35.8741 59.5337 32.0001 59.5337 32.0001Z" fill="#E99700"/>
<path d="M31.9767 64C26.7943 64 24.0391 59.974 23.1084 58.2836C21.3464 59.083 16.7643 60.6568 12.4889 57.9068C8.1703 55.1257 8.44886 50.2295 8.76411 48.2685C6.73652 47.9854 1.85433 46.7926 0.392481 41.8652C-1.06937 36.9378 1.92343 33.3198 3.30107 31.9854C1.94286 30.6177 -1.00027 26.9477 0.392481 22.139C1.78523 17.3302 6.73868 16.0645 8.76411 15.746C8.45101 13.8142 8.17678 8.97424 12.4781 6.10148C16.7795 3.22873 21.3313 4.85246 23.1019 5.68514C24.0067 3.96982 26.6669 0 31.9767 0C37.2864 0 39.9661 3.98231 40.8579 5.69971C42.6544 4.86703 47.2905 3.21207 51.486 6.11605C55.6815 9.02004 55.4678 13.8434 55.1784 15.7585C57.1671 16.0812 62.0299 17.351 63.5565 22.1285C65.068 26.8686 62.0321 30.6073 60.6566 31.9938C62.0623 33.3448 65.1479 37.0023 63.5544 41.8923C61.9608 46.7822 57.1693 47.9875 55.1806 48.2748C55.4591 50.1754 55.6491 54.88 51.499 57.8902C47.6252 60.7005 42.6933 59.0559 40.8557 58.2732C39.9467 59.9532 37.1784 64 31.9767 64ZM23.8274 56.2061L24.1665 56.9971C24.2615 57.222 26.5957 62.522 31.9767 62.522C37.3577 62.522 39.7653 57.0533 39.789 56.9971L40.1129 56.2352L40.8644 56.6287C40.9205 56.6578 46.6146 59.5764 50.5813 56.7015C54.9474 53.5332 53.6043 48.0291 53.5373 47.796L53.3085 46.905L54.2607 46.878C54.509 46.878 60.3996 46.6406 62.0947 41.4405C63.8027 36.205 59.117 32.6183 59.0716 32.5829L58.331 32.0271L59.0457 31.4379C59.0997 31.3921 63.6839 27.5202 62.0968 22.5553C60.5097 17.5904 54.2931 17.1241 54.2305 17.12L53.3128 17.07L53.5287 16.2144C53.5892 15.9771 54.9668 10.344 50.5856 7.31928C46.2043 4.29456 41.1062 7.23393 40.8924 7.36092L40.1021 7.82722L39.7739 6.99454C39.6854 6.77179 37.5326 1.4905 31.9702 1.4905C26.4078 1.4905 24.2615 6.7593 24.1837 6.98413L23.849 7.83346L23.0544 7.34426C22.8385 7.21728 17.9239 4.2675 13.3613 7.31512C8.79866 10.3627 10.3469 15.948 10.4138 16.1853L10.6665 17.07L9.71637 17.12C9.45941 17.1324 3.3313 17.5009 1.87161 22.5324C0.388162 27.6492 4.86656 31.4005 4.91191 31.4338L5.61369 32.0167L4.89032 32.5766C4.70462 32.7224 0.312586 36.2238 1.86729 41.4593C3.40255 46.6469 9.43998 46.8717 9.69478 46.8717L10.6578 46.8988L10.416 47.796C10.3534 48.0396 8.88504 53.8017 13.3397 56.6703C17.8418 59.568 23.0112 56.6703 23.0566 56.637L23.8274 56.2061Z" fill="#A95101"/>
<g style="mix-blend-mode:multiply">
<path d="M57.0051 34.3232L54.36 32.3414L56.9036 30.2493C57.2599 29.9412 60.3585 27.1476 59.253 23.6628C58.1474 20.178 53.5761 19.7596 53.3753 19.7429L50.0738 19.5348L50.9375 16.483C50.9807 16.3019 51.9675 12.0448 48.8581 9.89646C45.6752 7.70026 41.7129 9.98389 41.6697 10.0089L38.8 11.72L37.6772 8.68699C37.6081 8.52045 35.9238 4.60684 31.9831 4.60684C28.0423 4.60684 26.343 8.53502 26.2588 8.72446L25.0884 11.8887L22.264 9.99222L22.2403 9.9714C22.0827 9.87772 18.3363 7.72732 15.0671 9.91103C11.8756 12.0448 12.9553 16.2519 13.0092 16.4455L13.9939 19.6451L10.4958 19.7471C10.3015 19.7471 5.74534 20.0968 4.72182 23.5941C3.64217 27.3266 7.01069 30.2139 7.04524 30.241L9.60834 32.3497L6.98262 34.3003C6.63497 34.5876 3.62706 37.198 4.71751 40.8847C5.79716 44.5173 10.2669 44.7359 10.4764 44.7442L13.9615 44.7692L13.0092 48.0437C12.9639 48.2269 11.9296 52.5652 15.0239 54.5553C18.3557 56.7016 22.2748 54.4991 22.3159 54.4762L25.0474 52.8983L26.2566 55.744C26.3322 55.9147 28.1589 59.8949 31.9788 59.8949C35.8439 59.8949 37.688 55.7752 37.7052 55.7315L38.8605 53.0107L41.5423 54.42C41.5877 54.4429 46.0531 56.6308 48.8019 54.6386C51.9372 52.3633 50.9612 48.1707 50.9245 47.9771L50.0111 44.7026L53.479 44.7421H53.5135C53.9778 44.7193 58.0826 44.4091 59.253 40.8161C60.4989 36.9774 57.0267 34.3482 57.0051 34.3232ZM53.2825 20.7755C53.4466 20.788 57.3096 21.1314 58.2165 23.9688C59.1493 26.8832 56.3012 29.3812 56.1867 29.4708L53.5502 31.642C53.5251 30.7353 53.4378 29.8313 53.289 28.9358L54.6407 27.8241L54.6666 27.8033C54.9711 27.5181 56.4631 26.0297 56.014 24.6225C55.5821 23.2798 53.1335 22.9904 53.0881 22.9862L51.2376 22.8655C50.818 22.0647 50.3441 21.2914 49.819 20.5506L53.2825 20.7755ZM46.5886 48.9847C46.6901 49.5613 46.7225 50.7125 46.1676 51.1788C46.0757 51.1952 45.9824 51.2029 45.889 51.2017C45.0253 51.2017 43.896 50.7666 43.5915 50.6271L42.8228 50.2233C44.0489 49.5346 45.2017 48.7314 46.2647 47.8252L46.5886 48.9847ZM17.3041 15.338C17.1832 14.7135 17.1616 13.7226 17.5956 13.4333C17.8219 13.2859 18.0915 13.2128 18.3643 13.2251C18.8914 13.2479 19.4071 13.3807 19.8758 13.6144L21.0008 14.3638C19.8328 15.033 18.7331 15.8074 17.7165 16.6766L17.3041 15.338ZM52.5008 32.2477C52.5025 36.1574 51.3015 39.9797 49.0497 43.2313C46.7979 46.4829 43.5964 49.0176 39.8502 50.5149C36.104 52.0122 31.9813 52.4048 28.0036 51.6431C24.0259 50.8814 20.3719 48.9995 17.5037 46.2356C14.6355 43.4716 12.682 39.9497 11.8902 36.1153C11.0984 32.2808 11.5039 28.3062 13.0554 24.694C14.607 21.0817 17.2348 17.9942 20.6066 15.822C23.9785 13.6497 27.9428 12.4903 31.9982 12.4903C37.4335 12.493 42.6454 14.5752 46.4895 18.2796C50.3336 21.984 52.4957 27.0078 52.5008 32.2477V32.2477ZM51.7688 23.9397L53.0018 24.0208C53.5999 24.0812 54.8437 24.4601 54.9948 24.9326C55.2215 25.6404 54.3211 26.6917 53.9389 27.0539L53.0644 27.7721C52.7633 26.4569 52.3294 25.1733 51.7688 23.9397V23.9397ZM46.6016 15.4775L46.2669 16.6641C45.2219 15.7751 44.0911 14.9846 42.8897 14.3034L43.9176 13.6914C44.4594 13.4175 45.0558 13.2585 45.6666 13.2251C45.8763 13.2069 46.0861 13.2591 46.2604 13.3729C46.7247 13.6935 46.7117 14.8905 46.6016 15.4775ZM31.9982 11.4494C31.3029 11.4494 30.6141 11.4848 29.9339 11.5473L30.4068 10.2753C30.491 10.1005 31.1237 8.88475 31.9723 8.88475C32.6719 8.88475 33.2679 9.74241 33.5335 10.2649L34.0063 11.5431C33.3456 11.4827 32.6762 11.4494 31.9982 11.4494ZM10.9255 27.8033L10.0013 27.0435C9.85666 26.8998 8.70575 25.7403 9.00373 24.7536C9.08794 24.4601 10.051 24.1083 10.7636 24.0333L12.2038 23.9917C11.6503 25.2192 11.2222 26.4958 10.9255 27.8033V27.8033ZM12.1865 40.4726L10.6297 40.4601C10.0532 40.3976 9.11817 40.1416 8.99293 39.7086C8.69927 38.7198 9.60402 37.8038 9.83506 37.5915L10.9428 36.7588C11.2362 38.0315 11.6526 39.2748 12.1865 40.4726V40.4726ZM17.3235 49.0804L17.7057 47.8002C18.7531 48.6986 19.8885 49.4968 21.0958 50.1837L20.1112 50.7541C19.5529 51.0225 18.9423 51.175 18.319 51.2017C18.0277 51.2206 17.7376 51.1507 17.4898 51.0018C17.2739 50.854 17.1551 49.8861 17.3235 49.0804V49.0804ZM32.0068 53.0357C32.7108 53.0357 33.4039 53.0003 34.0884 52.9378L33.6285 54.0224C33.3672 54.5553 32.5898 55.6003 31.9809 55.6003C31.372 55.6003 30.5925 54.5595 30.3463 54.0536L29.8713 52.9337C30.5666 53.0107 31.277 53.0461 31.9982 53.0461L32.0068 53.0357ZM53.0558 36.7838L54.2131 37.6498C54.3254 37.7455 55.3165 38.6011 55.0164 39.5233C54.7767 40.2582 53.6539 40.4184 53.3645 40.4497L51.8357 40.4309C52.3556 39.2575 52.7611 38.04 53.0471 36.7942L53.0558 36.7838ZM42.2182 10.8832C42.2506 10.8645 45.6558 8.95761 48.2232 10.7291C50.7561 12.4799 49.9183 16.0854 49.8859 16.2207L48.9768 19.4348C48.412 18.7402 47.8026 18.0804 47.1522 17.4593L47.6424 15.7294C47.6472 15.7159 47.6508 15.7019 47.6532 15.6878C47.6704 15.5941 48.085 13.3646 46.8845 12.5319C46.5287 12.2917 46.1005 12.1717 45.6666 12.1905C44.8664 12.2235 44.0845 12.4313 43.3799 12.7984L41.8101 13.7393C40.9788 13.3269 40.1205 12.9674 39.2405 12.663L42.2182 10.8832ZM27.2628 9.09084C27.3211 8.94928 28.7312 5.63312 31.9723 5.63312C35.2134 5.63312 36.6126 8.92638 36.6645 9.04712L37.8413 12.228C36.9724 11.9914 36.0889 11.8078 35.1961 11.6784L34.5354 9.8923C34.5302 9.87654 34.5237 9.86123 34.5159 9.8465C34.3562 9.51343 33.4795 7.85014 31.9723 7.85014C30.4651 7.85014 29.5819 9.51551 29.4221 9.86107L29.4027 9.9027L28.7549 11.6846C27.8611 11.818 26.9769 12.0057 26.1076 12.2467L27.2628 9.09084ZM15.6738 10.7562C18.3147 8.99092 21.4046 10.6917 21.6637 10.8395L24.4924 12.7422C23.6542 13.0444 22.8364 13.3969 22.0438 13.7976L20.4589 12.7317C20.4417 12.7194 20.4237 12.7083 20.4049 12.6984C19.7739 12.3788 19.0766 12.1995 18.3643 12.1738C17.872 12.1642 17.389 12.3048 16.9845 12.5756C15.9049 13.3042 16.151 15.0383 16.2568 15.5525C16.2568 15.5691 16.2568 15.5837 16.2568 15.6003L16.842 17.4655C16.2008 18.0782 15.6 18.7289 15.0433 19.414L14.0349 16.1707C14.0025 16.0292 13.0891 12.4903 15.6738 10.7624V10.7562ZM7.74485 29.4603C7.71678 29.4354 4.86218 26.9623 5.75613 23.873C6.56587 21.0731 10.4051 20.79 10.5476 20.7817L14.0781 20.6797C13.5761 21.4041 13.121 22.1577 12.7156 22.9363L10.7096 22.9946H10.6707C10.647 22.9946 8.32571 23.2423 7.96942 24.4684C7.52029 26.0234 8.96486 27.5056 9.26501 27.7866C9.27401 27.7967 9.28415 27.8058 9.29524 27.8137L10.7009 28.9691C10.5555 29.8649 10.4704 30.7688 10.4461 31.6753L7.74485 29.4603ZM10.5023 43.7159C10.3425 43.7159 6.61554 43.5264 5.75181 40.6037C4.84274 37.5394 7.38857 35.3328 7.66064 35.108L10.4483 33.0367C10.4802 33.9073 10.5696 34.7751 10.7161 35.6347L9.1592 36.7921L9.12033 36.8254C8.84394 37.0752 7.49006 38.4034 7.96294 39.9959C8.31275 41.1783 10.0272 41.4426 10.5541 41.4968H10.6081L12.7026 41.5113C13.099 42.2787 13.5439 43.0219 14.0349 43.7367L10.5023 43.7159ZM21.7696 53.5894C21.735 53.6081 18.3406 55.4505 15.6198 53.6997C13.141 52.1051 14.0155 48.4434 14.0479 48.3081L15.0001 45.0357C15.5606 45.73 16.1665 46.3891 16.8139 47.0091L16.2871 48.8223C16.2861 48.8334 16.2861 48.8445 16.2871 48.8556C16.1489 49.4926 15.9912 51.2704 16.9046 51.8574C17.3276 52.1215 17.8239 52.2551 18.3276 52.2405C19.1349 52.2137 19.926 52.0154 20.6446 51.6597L22.1928 50.7645C23.0313 51.1796 23.8969 51.5419 24.7839 51.8491L21.7696 53.5894ZM36.7076 55.338C36.6925 55.3734 35.1033 58.8603 31.9723 58.8603C28.8413 58.8603 27.2995 55.4796 27.2391 55.3443L25.9111 52.1947C26.8099 52.4515 27.7253 52.6511 28.6513 52.7921L29.366 54.4762C29.3768 54.4991 30.4284 56.6453 31.9831 56.6453C33.5378 56.6453 34.5894 54.497 34.611 54.4492L35.3106 52.8025C36.2352 52.6646 37.1492 52.4671 38.0464 52.2113L36.7076 55.338ZM48.152 53.8163C45.9538 55.4088 42.0757 53.527 42.0454 53.5124L39.0051 51.9157C39.932 51.6078 40.836 51.2391 41.7108 50.8124L43.11 51.5473C43.6261 51.7846 44.8698 52.2342 45.8977 52.2342C46.1984 52.2518 46.4981 52.1861 46.7614 52.0448C48.0008 51.1455 47.7115 49.1699 47.6402 48.7827C47.6412 48.7682 47.6412 48.7536 47.6402 48.739L47.163 47.0279C47.8148 46.4044 48.4249 45.7418 48.9898 45.044L49.8794 48.2311C49.9118 48.3831 50.7431 51.9407 48.152 53.8163ZM58.2251 40.5059C57.2837 43.3953 53.9281 43.6826 53.4747 43.7096L50.0198 43.6701C50.5039 42.9629 50.943 42.2281 51.3348 41.4697L53.3775 41.4926H53.4336C53.9324 41.4468 55.5929 41.1928 56.0248 39.8439C56.5214 38.3263 55.1762 37.1085 54.8804 36.8629L53.2738 35.6597C53.4224 34.7988 53.514 33.9296 53.5481 33.0575L56.3293 35.1392C56.3573 35.1621 59.2357 37.4 58.223 40.5059H58.2251Z" fill="#E99700"/>
</g>
<path d="M57.0051 34.0775L54.36 32.0936L56.9036 30.0119C57.2599 29.7059 60.3585 26.9102 59.253 23.4254C58.1474 19.9406 53.5761 19.5222 53.3753 19.5056L50.0716 19.2974L50.9353 16.2456C50.9785 16.0645 51.9653 11.8074 48.8559 9.66118C45.6731 7.46497 41.7108 9.74653 41.6676 9.77151L38.7957 11.4827L37.675 8.4517C37.6059 8.28517 35.9217 4.36948 31.9809 4.36948C28.0402 4.36948 26.343 8.29141 26.2588 8.47668L25.0884 11.6409L22.264 9.74028L22.236 9.72363C22.0783 9.63203 18.3319 7.47955 15.0627 9.66534C11.8756 11.797 12.9553 16.0062 13.0092 16.2019L13.9939 19.3994L10.4958 19.5014C10.3015 19.5139 5.74534 19.8511 4.72182 23.3484C3.64217 27.0809 7.01069 29.9682 7.04524 29.9974L9.60834 32.102L6.98262 34.0525C6.63497 34.3481 3.62706 36.9503 4.71751 40.637C5.79716 44.2696 10.2669 44.4902 10.4764 44.4965L13.9615 44.5214L13.0092 47.796C12.9639 47.9812 11.9296 52.3195 15.0239 54.3096C18.3557 56.4538 22.2748 54.2513 22.3159 54.2284L25.0474 52.6526L26.2566 55.4983C26.3322 55.6669 28.1589 59.6471 31.9788 59.6471C35.8439 59.6471 37.688 55.5274 37.7052 55.4837L38.8605 52.7629L41.5423 54.1722C41.5877 54.1951 46.0531 56.383 48.7998 54.3908C51.9372 52.1155 50.9699 47.9229 50.9245 47.7293L50.009 44.4527L53.479 44.4923H53.5135C53.9778 44.4673 58.0826 44.1571 59.253 40.5662C60.4989 36.7296 57.0267 34.1004 57.0051 34.0775ZM53.2825 20.5277C53.4466 20.5402 57.3096 20.8837 58.2165 23.721C59.1493 26.6354 56.3012 29.1335 56.1867 29.223L53.5502 31.3859C53.5253 30.4792 53.438 29.5752 53.289 28.6797L54.6407 27.5659C54.6502 27.5601 54.6589 27.5531 54.6666 27.5451C54.9711 27.2599 56.4631 25.7715 56.014 24.3643C55.5821 23.0216 53.1335 22.7322 53.0881 22.7281L51.2376 22.6073C50.817 21.807 50.3431 21.0338 49.819 20.2925L53.2825 20.5277ZM46.5886 48.7369C46.6901 49.3135 46.7225 50.4668 46.1676 50.931C46.0759 50.9485 45.9825 50.9562 45.889 50.9539C45.0253 50.9539 43.896 50.5188 43.5915 50.3794L42.8228 49.9755C44.0494 49.2876 45.2023 48.4843 46.2647 47.5774L46.5886 48.7369ZM17.3041 15.0903C17.1832 14.4658 17.1616 13.4769 17.5956 13.1876C17.8171 13.0377 18.083 12.961 18.3535 12.969C18.8805 12.9929 19.396 13.1256 19.865 13.3583L20.9922 14.116C19.8274 14.7869 18.7307 15.5619 17.7165 16.4309L17.3041 15.0903ZM52.5008 32C52.5008 35.9093 51.2984 39.7308 49.0455 42.9813C46.7926 46.2317 43.5906 48.7652 39.8442 50.2612C36.0978 51.7572 31.9754 52.1487 27.9983 51.386C24.0212 50.6233 20.368 48.7408 17.5006 45.9765C14.6333 43.2122 12.6806 39.6903 11.8895 35.8561C11.0984 32.0219 11.5044 28.0477 13.0562 24.4359C14.608 20.8242 17.2359 17.7372 20.6075 15.5653C23.9792 13.3934 27.9432 12.2342 31.9982 12.2342C37.4349 12.2369 42.6482 14.3203 46.4926 18.0265C50.3369 21.7327 52.498 26.7586 52.5008 32V32ZM51.7688 23.6856L53.0018 23.7668C53.5977 23.8293 54.8437 24.2061 54.9948 24.6786C55.2215 25.3864 54.3211 26.4377 53.9389 26.7999L53.0644 27.5181C52.763 26.203 52.3291 24.9194 51.7688 23.6856V23.6856ZM46.6016 15.2297L46.2647 16.4163C45.2209 15.5268 44.0907 14.7363 42.8897 14.0557L43.9176 13.4457C44.4589 13.1703 45.0555 13.0105 45.6666 12.9773C45.8763 12.9592 46.0861 13.0114 46.2604 13.1251C46.7247 13.4457 46.7117 14.6427 46.6016 15.2297ZM31.9982 11.2016C31.3029 11.2016 30.6141 11.2349 29.9339 11.2974L30.4046 10.0255C30.491 9.85269 31.1237 8.63698 31.9723 8.63698C32.6719 8.63698 33.2679 9.49256 33.5335 10.0151L34.0063 11.2932C33.3456 11.2412 32.6762 11.2016 31.9982 11.2016ZM10.9255 27.5555L10.0013 26.7957C9.85666 26.6542 8.70575 25.4946 9.00373 24.5058C9.08794 24.2102 10.051 23.8584 10.7636 23.7835L12.2038 23.7418C11.6505 24.9701 11.2223 26.2473 10.9255 27.5555V27.5555ZM12.1865 40.2248H10.6297C10.0532 40.1603 9.11817 39.9042 8.99077 39.4712C8.69927 38.4824 9.60402 37.5685 9.83506 37.3541L10.9428 36.5214C11.2365 37.7906 11.6529 39.0305 12.1865 40.2248V40.2248ZM17.3235 48.8327L17.7057 47.5524C18.7526 48.4514 19.888 49.2498 21.0958 49.936L20.1112 50.5063C19.5529 50.7748 18.9423 50.9273 18.319 50.9539C18.0274 50.971 17.7377 50.898 17.492 50.7457C17.2739 50.6063 17.1551 49.6383 17.3235 48.8327V48.8327ZM32.0068 52.7879C32.7108 52.7879 33.4039 52.7525 34.0884 52.6901L33.6285 53.7746C33.3672 54.3075 32.5898 55.3526 31.9809 55.3526C31.372 55.3526 30.5925 54.3117 30.3463 53.8059L29.8713 52.6859C30.5644 52.7629 31.277 52.7983 31.9982 52.7983L32.0068 52.7879ZM53.0558 36.536L54.2131 37.402C54.3254 37.4978 55.3165 38.3533 55.0164 39.2755C54.7767 40.0083 53.6539 40.1707 53.3645 40.1998L51.8357 40.1832C52.3552 39.0096 52.7607 37.7921 53.0471 36.5464L53.0558 36.536ZM42.2182 10.6375C42.2506 10.6167 45.6558 8.70984 48.2232 10.4834C50.7561 12.2321 49.9183 15.8397 49.8859 15.9729L48.9747 19.1871C48.4112 18.4927 47.8025 17.8335 47.1522 17.2136L47.6424 15.4816C47.647 15.4687 47.6506 15.4555 47.6532 15.4421C47.6704 15.3463 48.085 13.1189 46.8845 12.2841C46.5287 12.044 46.1005 11.9239 45.6666 11.9427C44.8658 11.9761 44.0833 12.1839 43.3777 12.5506L41.8101 13.4853C40.9788 13.0729 40.1205 12.7133 39.2405 12.409L42.2182 10.6375ZM27.2628 8.84306C27.3211 8.70151 28.7312 5.38535 31.9723 5.38535C35.2134 5.38535 36.6126 8.67861 36.6645 8.79935L37.8413 11.9823C36.9727 11.744 36.0892 11.5597 35.1961 11.4306L34.5354 9.64452C34.5298 9.62959 34.5233 9.61499 34.5159 9.60081C34.3562 9.26565 33.4773 7.60237 31.9723 7.60237C30.4672 7.60237 29.5819 9.26773 29.4221 9.6133C29.4221 9.62787 29.4092 9.64244 29.4027 9.65493L28.7549 11.4369C27.8611 11.5702 26.9769 11.758 26.1076 11.9989L27.2628 8.84306ZM15.6738 10.5084C18.3147 8.74314 21.4046 10.4439 21.6637 10.5938L24.4924 12.4944C23.6546 12.7975 22.8368 13.15 22.0438 13.5498L20.4589 12.4902L20.4049 12.459C19.7706 12.1379 19.0695 11.9586 18.3535 11.9344C17.862 11.9261 17.3802 12.0666 16.9759 12.3362C15.8962 13.0648 16.1424 14.7988 16.2482 15.313C16.247 15.3289 16.247 15.345 16.2482 15.3609L16.842 17.2178C16.2008 17.8304 15.6 18.4811 15.0433 19.1662L14.0349 15.925C14.0025 15.7751 13.0891 12.2425 15.6738 10.5147V10.5084ZM7.74485 29.2146C7.71678 29.1897 4.86218 26.7166 5.75613 23.6273C6.56587 20.817 10.4051 20.5443 10.5476 20.5339L14.0781 20.4319C13.576 21.157 13.121 21.9113 12.7156 22.6906L10.7096 22.7489H10.6707C10.647 22.7489 8.32355 22.9966 7.96942 24.2227C7.52029 25.7778 8.96486 27.2599 9.26501 27.5534L9.29524 27.5784L10.6945 28.7275C10.5491 29.6234 10.464 30.5273 10.4397 31.4337L7.74485 29.2146ZM10.5023 43.4639C10.3425 43.4639 6.61554 43.2766 5.75181 40.3518C4.84274 37.2875 7.38857 35.0809 7.66064 34.8561L10.4483 32.7869C10.4795 33.6588 10.5682 34.5279 10.7139 35.389L9.15704 36.5443L9.11817 36.5776C8.84178 36.8275 7.4879 38.1556 7.96078 39.7481C8.31059 40.9305 10.0251 41.2053 10.552 41.249H10.6059L12.7005 41.2636C13.0971 42.0313 13.5427 42.7745 14.0349 43.4889L10.5023 43.4639ZM21.7696 53.3375C21.735 53.3562 18.3406 55.2006 15.6198 53.4499C13.141 51.8532 14.0155 48.1936 14.0479 48.0562L15.0001 44.7837C15.5607 45.478 16.1665 46.1371 16.8139 46.7572L16.2871 48.5704C16.286 48.5821 16.286 48.594 16.2871 48.6057C16.1489 49.2303 15.9912 51.0184 16.9046 51.6055C17.3276 51.8695 17.8239 52.0031 18.3276 51.9885C19.1311 51.9638 19.9191 51.7691 20.6359 51.4181L22.1841 50.523C23.0218 50.9398 23.8875 51.3021 24.7753 51.6076L21.7696 53.3375ZM36.7076 55.0923C36.6925 55.1257 35.1033 58.6146 31.9723 58.6146C28.8413 58.6146 27.2995 55.2318 27.2391 55.0965L25.9111 51.9469C26.8101 52.2035 27.7254 52.4037 28.6513 52.5464L29.366 54.2305C29.3768 54.2513 30.4284 56.3976 31.9831 56.3976C33.5378 56.3976 34.5894 54.2493 34.611 54.2035L35.3106 52.5547C36.2352 52.4169 37.1492 52.2193 38.0464 51.9635L36.7076 55.0923ZM48.152 53.5685C45.9538 55.161 42.0757 53.2792 42.0454 53.2667L39.003 51.6679C39.9306 51.36 40.8353 50.9914 41.7108 50.5646L43.11 51.2995C43.6261 51.5389 44.8698 51.9885 45.8977 51.9885C46.1986 52.0053 46.4983 51.9388 46.7614 51.797C48.0008 50.8977 47.7115 48.9222 47.6402 48.535C47.6402 48.5204 47.6402 48.5058 47.6402 48.4913L47.163 46.7801C47.8142 46.1568 48.4243 45.4949 48.9898 44.7983L49.8794 47.9833C49.9118 48.1353 50.7431 51.6929 48.152 53.5685ZM58.2251 40.2602C57.2837 43.1475 53.9281 43.4369 53.4747 43.4619L50.0198 43.4223C50.503 42.714 50.9408 41.9778 51.3305 41.2178L53.3732 41.2407H53.4293C53.9281 41.1949 55.5886 40.9409 56.0313 39.594C56.5258 38.0744 55.1805 36.8566 54.8847 36.611L53.2782 35.4077C53.4248 34.5473 53.5157 33.679 53.5502 32.8077L56.3314 34.8894C56.3573 34.9144 59.2357 37.1522 58.223 40.2602H58.2251Z" fill="#A95101"/>
<path d="M26.9654 44.8299H26.559V44.3986H26.9675L26.9654 44.8299Z" fill="#E99700"/>
<path d="M33.0628 42.1942L31.7672 44.8297H31.3094L30.2298 42.5023L29.1501 44.8297H28.6988L27.4032 42.1942H27.7746L28.9255 44.5361L30.0052 42.1942H30.4608L31.5405 44.5361L32.7 42.1942H33.0628Z" fill="#E99700"/>
<path d="M33.6393 44.8297H33.309V42.1942H33.6393V44.8297Z" fill="#E99700"/>
<path d="M36.9237 42.1942H37.4894L35.4813 43.4661L37.6255 44.8297H37.0295L35.1293 43.5973H34.6456V44.8297H34.3325V42.1942H34.6629V43.3308H35.1466L36.9237 42.1942Z" fill="#E99700"/>
<path d="M38.1847 44.8297H37.8521V42.1942H38.1847V44.8297Z" fill="#E99700"/>
</svg>
